<svg xmlns="http://www.w3.org/2000/svg" version="1.1" xmlns:xlink="http://www.w3.org/1999/xlink" xmlns:svgjs="http://svgjs.dev/svgjs" width="100%" height="100%" viewBox="0 0 1000 600"><rect width="1000" height="600" x="0" y="0" fill="#747d8c"/><g><rect width="333.3333333333333" height="333.3333333333333" rx="13.333333333333334" ry="13.333333333333334" y="126.80239092946951" fill="#ff4757" transform="matrix(1.1952550475645949,0,0,1.195255047564595,0,-50.77039832368101)" x="104.58019256591797"/><path d="M314.21224650364593 343.6087834953147L319.30682942857896 359.4084394017526Q311.1812921052681 364.05160358650176 302.0239405186795 366.2442088959666Q292.8343447363636 368.4690584011588 282.3872253206781 368.4690584011588L282.3872253206781 368.4690584011588Q269.61852381261815 368.4690584011588 258.81671824393095 363.92262680359204Q248.04715687097126 359.4084394017526 240.1473289177523 350.2188436194367Q232.24750096453334 341.06149203284815 227.73331356269395 326.90629010850887Q223.18688196512713 312.7510881841697 223.18688196512713 293.4690591391699L223.18688196512713 293.4690591391699Q223.18688196512713 275.1221117702655 227.95902293278593 261.1926192160182Q232.6989197047173 247.2631266617709 240.82445702802823 237.75108892218074Q248.94999435133914 228.23905118259057 259.880776702936 223.37017762774948Q270.7793148588054 218.46905987718102 283.0965976266815 218.46905987718102L283.0965976266815 218.46905987718102Q291.67355369017633 218.46905987718102 300.60519590667286 220.79064196955554Q309.56908231889685 223.1122240619301 318.1460383823917 228.46476055268255L318.1460383823917 228.46476055268255L312.5677925215473 244.26441645912044Q297.2517995510208 235.42950682980617 283.77372573695743 235.42950682980617L283.77372573695743 235.42950682980617Q274.26168799736723 235.42950682980617 266.7165461971499 239.49227549146164Q259.17140439693264 243.5550441531171 253.85111210190763 251.2291627362441Q248.49857561115522 258.87103712364365 245.596597995687 269.54386590942113Q242.69462038021882 280.24893889092596 242.69462038021882 293.4690591391699L242.69462038021882 293.4690591391699Q242.69462038021882 308.33363336951254 245.82230736577898 319.2321715253819Q248.94999435133914 330.1629538769788 254.52824021218356 337.3534095241944Q260.10648607302795 344.54386517140995 267.87733724333725 348.02623830997186Q275.6481884136465 351.50861144853366 284.7088074130527 351.50861144853366L284.7088074130527 351.50861144853366Q291.44784432008436 351.50861144853366 298.86400933739196 349.76742487925276Q306.31241855042697 348.02623830997186 314.21224650364593 343.6087834953147L314.21224650364593 343.6087834953147Z " fill="#747d8c" transform="matrix(1.1952550475645949,0,0,1.195255047564595,0,-50.77039832368101)"/><path d="M541.1369172394277 351.5069793683291L610.6679924294478 351.5069793683291L610.6679924294478 368.46906160248693L521.2468565243735 368.46906160248693L521.2468565243735 218.46906057542014L541.1369172394277 218.46906057542014L541.1369172394277 351.5069793683291ZM629.817644793011 218.46906057542014L732.0613071489072 218.46906057542014L732.0613071489072 235.43114280957803L690.8676788659524 235.43114280957803L690.8676788659524 368.46906160248693L671.011273075966 368.46906160248693L671.011273075966 235.43114280957803L629.817644793011 235.43114280957803L629.817644793011 218.46906057542014Z " fill="#ff4757" transform="matrix(1.1952550475645949,0,0,1.195255047564595,0,-50.77039832368101)"/></g></svg>